<?xml version="1.0" encoding="utf-8"?>
<!-- Generator: Adobe Illustrator 19.2.1, SVG Export Plug-In . SVG Version: 6.00 Build 0)  -->
<svg version="1.1" id="layer" xmlns="http://www.w3.org/2000/svg" xmlns:xlink="http://www.w3.org/1999/xlink" x="0px" y="0px"
	 viewBox="0 200 652 200" style="enable-background:new 0 0 652 652;" xml:space="preserve">
<style type="text/css">
	.st0{fill:#F2971B;}
	.st1{fill:#BB1130;}
	.st2{fill:#E95521;}
	.st3{fill:#F9BF17;}
</style>
<g>
	<path d="M206,324.3c-2.8,0-7.2-0.3-9.7-0.4v28.5c0,1.2-0.9,2.2-2.1,2.2h-10.9c-1.2,0-2.2-1-2.2-2.2v-75.3c0-2.2,1.3-2.9,3.5-3.3
		c5.7-0.9,13.5-1.4,21.4-1.4c16.8,0,31.5,5.9,31.5,25.3v1C237.5,318.1,222.8,324.3,206,324.3 M222.4,297.7c0-9.2-5.5-12.7-16.4-12.7
		c-2.3,0-7.8,0.2-9.7,0.4v26c1.7,0.1,7.9,0.3,9.7,0.3c11.8,0,16.4-4.4,16.4-13.1V297.7z"/>
	<path d="M256.4,284.7h-10.6c-1.2,0-2.3-1-2.3-2.2v-9.6c0-1.2,1.1-2.2,2.3-2.2h10.6c1.2,0,2.2,1,2.2,2.2v9.6
		C258.6,283.7,257.6,284.7,256.4,284.7 M256.1,354.6H246c-1.2,0-2.2-1.1-2.2-2.3v-57.2c0-1.2,1-2.2,2.2-2.2h10.1
		c1.2,0,2.2,1,2.2,2.2v57.2C258.3,353.5,257.3,354.6,256.1,354.6"/>
	<path d="M316.1,328.8h-35.7v0.3c0,6.3,2.6,13.9,13.1,13.9c8,0,15.5-0.7,20.1-1.1h0.3c1.1,0,2,0.5,2,1.6v7.2c0,1.7-0.3,2.5-2.3,2.8
		c-7.1,1.3-11.4,1.9-21.2,1.9c-10.9,0-26.5-5.9-26.5-27.5v-8.1c0-17.1,9.5-27.8,26.3-27.8c16.8,0,26,11.5,26,27.8v6.1
		C318.3,327.8,317.7,328.8,316.1,328.8 M303.8,318.1c0-8.5-4.7-13.5-11.5-13.5c-6.8,0-11.7,4.8-11.7,13.5v0.4h23.2V318.1z"/>
	<path d="M371.7,352.6c-6.8,1.8-15,2.8-22,2.8c-17.6,0-26.1-10.4-26.1-27.5v-8.4c0-17.1,8.5-27.5,26.1-27.5c2.6,0,6.5,0.2,10.5,0.8
		v-19.4c0-1.2,1-2.2,2.2-2.2h10.1c1.2,0,2.2,1,2.2,2.2v76.1C374.6,351.3,374.2,352,371.7,352.6 M360.2,304.7
		c-3.1-0.4-7.9-0.8-10.5-0.8c-9.4,0-11.7,6.7-11.7,15.6v8.4c0,9,2.3,15.6,11.7,15.6c3.9,0,8.4-0.3,10.5-0.8V304.7z"/>
	<path d="M460.3,354.6h-10.1c-1.2,0-2.2-1.1-2.2-2.3v-37.2c0-8.4-1.8-10.6-7.9-10.6c-2.1,0-6.2,0.7-10.2,2.7
		c0.3,2.4,0.4,5.1,0.4,7.9v37.2c0,1.2-1,2.3-2.2,2.3h-10.1c-1.2,0-2.2-1.1-2.2-2.3v-37.2c0-8.4-1.4-10.6-7.5-10.6
		c-2.3,0-5.6,1.2-10.1,3.6v44.2c0,1.2-1,2.3-2.2,2.3h-10.1c-1.2,0-2.2-1.1-2.2-2.3v-57.2c0-1.2,1-2.2,2.2-2.2h9.5
		c1.2,0,2.2,1,2.2,2.2v2.3c4.6-3,9.2-5.3,15.6-5.3c6.2,0,10.3,1.9,12.8,4.9c5.6-3.1,10.5-4.9,18-4.9c14.9,0,18.2,10.2,18.2,23v37.2
		C462.5,353.5,461.5,354.6,460.3,354.6"/>
	<path d="M496.1,355.5c-17.2,0-26.1-11.6-26.1-27.2v-8.9c0-15.6,9-27.2,26.1-27.2c17.2,0,26.1,11.6,26.1,27.2v8.9
		C522.2,343.9,513.2,355.5,496.1,355.5 M507.8,319.4c0-9-4.1-14.8-11.7-14.8c-7.7,0-11.7,5.8-11.7,14.8v8.9c0,9,4,14.8,11.7,14.8
		c7.7,0,11.7-5.8,11.7-14.8V319.4z"/>
	<path d="M578,354.6h-10.1c-1.2,0-2.2-1.1-2.2-2.3v-35.7c0-9.5-0.9-12.2-9.3-12.2c-3.7,0-7.8,1.5-12.4,3.9v44c0,1.2-1,2.3-2.2,2.3
		h-10.1c-1.2,0-2.2-1.1-2.2-2.3v-57.2c0-1.2,1-2.2,2.2-2.2h9.5c1.2,0,2.2,1,2.2,2.2v2.3c6.3-4,10.5-5.3,17.7-5.3
		c15.8,0,18.9,10.6,18.9,24.5v35.7C580.2,353.5,579.2,354.6,578,354.6"/>
	<path d="M619.7,354.7c-2.6,0.4-5,0.8-7.4,0.8c-12.4,0-17.4-2.7-17.4-17.4v-34.3l-10.3-1.5c-1.2-0.2-2.2-1-2.2-2.2v-4.9
		c0-1.2,1-2.2,2.2-2.2h10.3v-9c0-1.2,1-2,2.2-2.2l10.2-1.8h0.4c1,0,1.8,0.5,1.8,1.6v11.3h9.8c1.2,0,2.2,1,2.2,2.2v6.5
		c0,1.2-1,2.2-2.2,2.2h-9.8v34.3c0,5.5,0.3,6.1,4.3,6.1h5.8c1.4,0,2.3,0.5,2.3,1.6v6.9C621.7,353.8,621.1,354.5,619.7,354.7"/>
	<path class="st0" d="M402.3,394.5h-3.8c-0.4,0-0.8-0.3-0.8-0.8v-11.6H387v11.6c0,0.4-0.3,0.8-0.8,0.8h-3.8c-0.4,0-0.8-0.3-0.8-0.8
		V367c0-0.4,0.3-0.7,0.8-0.7h3.8c0.4,0,0.8,0.3,0.8,0.7v10.5h10.8V367c0-0.4,0.3-0.7,0.8-0.7h3.8c0.4,0,0.8,0.3,0.8,0.7v26.8
		C403.1,394.2,402.8,394.5,402.3,394.5"/>
	<path class="st0" d="M426.5,394.3c-1.2,0.2-2.7,0.5-7.2,0.5c-4.9,0-8.8-1.3-8.8-7.8v-13.3c0-6.5,3.8-7.8,8.8-7.8
		c4.5,0,6,0.3,7.2,0.5c0.6,0.1,0.8,0.3,0.8,0.8v2.4c0,0.4-0.3,0.8-0.8,0.8h-7.7c-2.2,0-3,0.8-3,3.3v4.1H426c0.4,0,0.8,0.3,0.8,0.8
		v2.7c0,0.4-0.3,0.8-0.8,0.8h-10.3v4.9c0,2.5,0.8,3.3,3,3.3h7.7c0.4,0,0.8,0.3,0.8,0.8v2.4C427.3,394,427.1,394.2,426.5,394.3"/>
	<path class="st0" d="M454.4,394.5h-4c-0.3,0-0.7-0.3-0.7-0.7l-1.7-7.2h-8.7l-1.7,7.2c-0.1,0.3-0.4,0.7-0.7,0.7h-4
		c-0.4,0-0.7-0.3-0.7-0.7c0,0,0-0.1,0-0.2l6.2-23.8c0.9-3.5,3.7-3.9,5.3-3.9c1.6,0,4.4,0.3,5.3,3.9l6.2,23.8c0,0.1,0,0.2,0,0.2
		C455.1,394.2,454.8,394.5,454.4,394.5 M444.1,371c-0.1-0.5-0.2-0.6-0.6-0.6c-0.4,0-0.5,0.2-0.6,0.6l-2.7,11.3h6.7L444.1,371z"/>
	<path class="st0" d="M474.8,394.3c-1.1,0.3-4.4,0.5-6.5,0.5c-4.9,0-8.8-1.3-8.8-7.8v-20c0-0.4,0.3-0.8,0.8-0.8h3.8
		c0.4,0,0.8,0.3,0.8,0.8v20c0,2.5,0.8,3.3,3,3.3h7c0.4,0,0.8,0.3,0.8,0.8v2.4C475.6,394,475.4,394.2,474.8,394.3"/>
	<path class="st0" d="M495,370.7h-6.7v23.1c0,0.4-0.3,0.8-0.8,0.8h-3.8c-0.4,0-0.8-0.3-0.8-0.8v-23.1h-6.7c-0.4,0-0.8-0.3-0.8-0.7
		v-3c0-0.4,0.3-0.7,0.8-0.7H495c0.4,0,0.8,0.3,0.8,0.7v3C495.8,370.4,495.4,370.7,495,370.7"/>
	<path class="st0" d="M521.9,394.5h-3.8c-0.4,0-0.8-0.3-0.8-0.8v-11.6h-10.8v11.6c0,0.4-0.3,0.8-0.8,0.8H502c-0.4,0-0.8-0.3-0.8-0.8
		V367c0-0.4,0.3-0.7,0.8-0.7h3.8c0.4,0,0.8,0.3,0.8,0.7v10.5h10.8V367c0-0.4,0.3-0.7,0.8-0.7h3.8c0.4,0,0.8,0.3,0.8,0.7v26.8
		C522.6,394.2,522.3,394.5,521.9,394.5"/>
	<path class="st0" d="M546,394.2c-0.6,0.2-3.1,0.6-6,0.6c-4.6,0-10.8-2.2-10.8-11.6v-5.6c0-9.5,6.2-11.6,10.8-11.6
		c2.9,0,5.4,0.5,6,0.6c0.5,0.2,0.8,0.3,0.8,0.9v2.5c0,0.5-0.2,0.8-0.8,0.8H546c-1.3-0.1-3.9-0.3-5.9-0.3c-3.2,0-5.5,1.7-5.5,7.1v5.6
		c0,5.3,2.3,7.1,5.5,7.1c2,0,4.6-0.2,5.9-0.3h0.1c0.6,0,0.8,0.3,0.8,0.8v2.5C546.9,393.9,546.5,394,546,394.2"/>
	<path class="st0" d="M573.4,394.5h-4c-0.3,0-0.7-0.3-0.7-0.7l-1.7-7.2h-8.7l-1.7,7.2c-0.1,0.3-0.4,0.7-0.7,0.7h-4
		c-0.4,0-0.7-0.3-0.7-0.7c0,0,0-0.1,0-0.2l6.2-23.8c0.9-3.5,3.6-3.9,5.3-3.9c1.6,0,4.4,0.3,5.3,3.9l6.2,23.8c0,0.1,0,0.2,0,0.2
		C574.1,394.2,573.8,394.5,573.4,394.5 M563.2,371c-0.1-0.5-0.2-0.6-0.6-0.6c-0.4,0-0.5,0.2-0.6,0.6l-2.7,11.3h6.7L563.2,371z"/>
	<path class="st0" d="M599.5,394.5h-4.6c-0.4,0-0.6-0.4-0.8-0.8l-5.5-10.1h-0.5c-1,0-2.5-0.1-3.4-0.2v10.3c0,0.4-0.3,0.8-0.7,0.8
		h-3.8c-0.4,0-0.8-0.3-0.8-0.8v-26.1c0-0.8,0.5-1,1.2-1.1c2-0.3,4.7-0.5,7.5-0.5c5.9,0,10.9,2.1,10.9,8.6v0.3c0,4-2,6.5-5.1,7.7
		l6,11.1c0.1,0.1,0.1,0.2,0.1,0.3C599.9,394.3,599.8,394.5,599.5,394.5 M593.8,374.6c0-2.9-1.9-4.1-5.7-4.1c-0.8,0-2.7,0.1-3.4,0.2
		v8.6c0.6,0,2.7,0.1,3.4,0.1c3.9,0,5.7-1.1,5.7-4.4V374.6z"/>
	<path class="st0" d="M621,394.3c-1.2,0.2-2.7,0.5-7.2,0.5c-4.9,0-8.8-1.3-8.8-7.8v-13.3c0-6.5,3.8-7.8,8.8-7.8c4.5,0,6,0.3,7.2,0.5
		c0.6,0.1,0.8,0.3,0.8,0.8v2.4c0,0.4-0.3,0.8-0.8,0.8h-7.8c-2.2,0-3,0.8-3,3.3v4.1h10.3c0.4,0,0.8,0.3,0.8,0.8v2.7
		c0,0.4-0.3,0.8-0.8,0.8h-10.3v4.9c0,2.5,0.8,3.3,3,3.3h7.8c0.4,0,0.8,0.3,0.8,0.8v2.4C621.7,394,621.5,394.2,621,394.3"/>
	<path class="st1" d="M45.7,329.3v-55.7h11.7v-24H44.6c-12.6,0-22.8,10.3-22.8,22.8v56.8H45.7z"/>
	<path class="st2" d="M69.9,273.6h55.7v11.7h24v-12.8c0-12.6-10.3-22.8-22.8-22.8H69.9V273.6z"/>
	<path class="st3" d="M101.8,353.3H45.7v-12.3h-24v13.4c0,12.6,10.3,22.8,22.8,22.8h57.2V353.3z"/>
	<path class="st0" d="M125.5,296.9v56.3h-11.3v24h12.5c12.6,0,22.8-10.3,22.8-22.8v-57.4H125.5z"/>
</g>
</svg>
