<?xml version="1.0" standalone="no"?>
<!DOCTYPE svg PUBLIC "-//W3C//DTD SVG 20010904//EN"
 "http://www.w3.org/TR/2001/REC-SVG-20010904/DTD/svg10.dtd">
<svg version="1.0" xmlns="http://www.w3.org/2000/svg"
 width="512.000000pt" height="512.000000pt" viewBox="0 0 512.000000 512.000000"
 preserveAspectRatio="xMidYMid meet">

<g transform="translate(0.000000,512.000000) scale(0.100000,-0.100000)"
fill="#000000" stroke="none">
<path d="M1730 5109 c-234 -29 -478 -122 -685 -262 -118 -80 -312 -274 -392
-392 -146 -217 -236 -458 -263 -710 -8 -69 -10 -565 -8 -1590 l3 -1490 23 -73
c86 -280 294 -485 569 -564 63 -18 103 -22 208 -22 240 0 385 64 343 151 -21
45 -55 50 -145 22 -65 -20 -98 -24 -198 -23 -102 0 -132 5 -201 27 -196 65
-354 222 -421 420 l-28 82 0 1530 c0 1436 1 1535 18 1619 59 291 183 524 386
726 202 201 418 318 702 382 135 30 395 32 532 5 577 -115 1022 -573 1113
-1145 23 -149 16 -1163 -10 -1272 -52 -222 -169 -431 -328 -590 -115 -115
-209 -176 -458 -297 -262 -128 -325 -169 -422 -271 -147 -156 -228 -366 -228
-591 0 -119 -57 -275 -138 -377 -48 -61 -56 -84 -41 -117 11 -24 46 -47 74
-47 39 0 133 119 185 234 43 94 59 168 70 318 17 228 71 358 200 489 85 86
128 113 360 223 214 102 302 154 414 247 195 162 338 373 420 621 63 188 66
231 66 824 0 481 -2 543 -19 646 -107 626 -591 1122 -1217 1248 -115 24 -369
34 -484 19z"/>
<path d="M1633 4619 c-401 -107 -702 -411 -810 -817 -22 -83 -26 -119 -27
-252 -1 -149 0 -158 30 -241 97 -270 344 -455 617 -460 65 -1 73 0 94 25 29
34 29 58 1 90 -20 22 -36 27 -108 35 -200 22 -352 126 -435 296 -19 39 -37 89
-41 113 l-7 43 274 -3 274 -3 66 -31 c162 -77 249 -214 249 -390 0 -45 5 -95
10 -110 21 -55 68 -69 115 -33 l27 22 -5 126 c-5 143 -18 197 -74 289 -71 117
-178 206 -309 254 -55 21 -79 23 -347 26 l-288 3 6 47 c56 406 349 735 735
827 109 26 126 34 139 61 16 35 14 48 -10 78 -25 32 -71 34 -176 5z"/>
<path d="M2026 4621 c-11 -12 -19 -35 -19 -52 0 -46 28 -64 142 -93 343 -85
617 -349 710 -686 35 -126 44 -263 38 -617 -5 -359 -11 -401 -68 -538 -67
-161 -212 -329 -349 -405 -83 -46 -110 -72 -110 -108 0 -36 37 -72 74 -72 15
0 58 18 95 40 248 145 409 364 484 658 20 82 22 109 22 487 0 296 -4 420 -14
475 -57 315 -231 585 -489 756 -128 86 -322 161 -437 171 -52 5 -62 3 -79 -16z"/>
<path d="M4208 4042 c-464 -463 -457 -454 -403 -507 53 -54 44 -61 507 403
464 463 457 454 403 507 -53 54 -44 61 -507 -403z"/>
<path d="M1835 2660 c-14 -16 -20 -45 -26 -133 -14 -210 -61 -389 -153 -582
-77 -162 -365 -696 -390 -723 -86 -96 -249 -74 -305 40 -19 40 -21 62 -21 212
0 164 0 167 -25 191 -31 32 -69 32 -101 0 l-26 -26 4 -192 c3 -187 4 -193 30
-244 40 -76 79 -115 150 -154 58 -32 70 -34 153 -34 78 0 97 4 146 28 98 48
128 90 341 492 109 204 213 412 233 463 71 184 115 399 115 560 0 69 -3 85
-20 102 -27 27 -81 26 -105 0z"/>
<path d="M3800 2610 c-38 -38 -22 -100 31 -119 42 -14 799 -15 850 -1 58 16
75 82 33 125 -13 13 -77 15 -455 15 -426 0 -440 -1 -459 -20z"/>
<path d="M3805 1585 c-54 -53 -61 -44 403 -507 463 -464 454 -457 507 -403 54
53 61 44 -403 507 -463 464 -454 457 -507 403z"/>
</g>
</svg>
