<?xml version="1.0" standalone="no"?>
<!DOCTYPE svg PUBLIC "-//W3C//DTD SVG 20010904//EN"
 "http://www.w3.org/TR/2001/REC-SVG-20010904/DTD/svg10.dtd">
<svg version="1.0" xmlns="http://www.w3.org/2000/svg"
 width="512.000000pt" height="434.000000pt" viewBox="0 0 512.000000 434.000000"
 preserveAspectRatio="xMidYMid meet">

<g transform="translate(0.000000,434.000000) scale(0.100000,-0.100000)"
fill="#000000" stroke="none">
<path d="M4115 4334 c-283 -28 -415 -76 -566 -207 -47 -41 -103 -84 -125 -95
-112 -57 -312 -88 -489 -77 -309 20 -454 40 -850 120 -148 30 -318 61 -376 70
-138 20 -359 19 -480 -1 -352 -59 -785 -322 -999 -606 -150 -199 -230 -456
-230 -739 0 -131 14 -256 60 -560 55 -354 57 -416 26 -679 -81 -659 -19 -999
202 -1107 56 -28 60 -28 227 -27 144 1 186 5 273 26 l103 25 14 -28 c24 -46
108 -121 163 -147 137 -63 303 18 453 221 54 72 149 245 149 271 0 6 105 64
233 128 247 125 303 161 292 191 -11 27 -42 20 -124 -27 -132 -76 -314 -163
-371 -177 -83 -21 -249 -17 -340 9 -150 42 -289 118 -409 226 -39 35 -69 55
-78 52 -8 -3 -17 -6 -19 -6 -2 0 -4 -11 -4 -24 0 -46 180 -185 335 -257 87
-41 225 -79 287 -79 80 0 70 -12 -69 -77 -243 -115 -475 -200 -648 -239 -97
-22 -342 -30 -400 -14 -96 27 -174 132 -212 285 -28 113 -25 504 6 740 28 210
31 344 12 511 l-14 121 43 72 c104 179 289 386 455 511 94 71 273 162 365 186
76 20 95 34 85 63 -8 26 -22 26 -107 2 -298 -85 -616 -345 -823 -673 -17 -27
-33 -48 -36 -48 -7 0 -34 180 -50 330 -14 132 -6 380 16 480 52 236 177 441
370 610 155 135 410 282 600 345 122 40 244 58 395 58 161 -1 278 -17 630 -89
146 -30 344 -65 440 -79 201 -29 268 -54 349 -130 119 -112 113 -170 -65 -573
-222 -503 -337 -846 -360 -1074 -6 -65 2 -98 27 -98 18 0 39 34 39 65 0 58 38
235 79 365 67 214 129 376 248 645 129 292 183 441 183 507 0 76 -28 137 -89
198 l-56 56 130 0 c72 0 163 6 203 13 40 7 75 11 78 9 2 -3 -3 -22 -12 -44
-13 -29 -19 -87 -24 -224 -8 -212 -15 -239 -100 -371 -146 -228 -271 -541
-325 -813 -16 -85 -16 -90 0 -102 34 -25 49 -2 73 118 50 241 164 523 306 755
99 162 108 194 116 408 4 103 12 193 19 210 16 40 51 76 136 141 39 30 99 79
135 109 78 67 158 108 260 134 190 48 562 54 710 11 124 -36 198 -77 277 -156
79 -78 127 -163 160 -284 25 -92 25 -361 -1 -480 -22 -101 -24 -105 -83 -173
-152 -173 -364 -305 -623 -387 -120 -39 -146 -58 -119 -85 15 -15 22 -15 80 0
211 55 457 185 608 321 33 31 61 53 61 50 0 -3 -21 -53 -46 -112 -82 -194
-200 -381 -326 -520 -39 -43 -77 -83 -85 -87 -20 -12 -34 -44 -27 -61 14 -35
51 -16 127 64 241 252 424 608 498 970 18 91 23 147 24 270 0 184 -15 260 -80
395 -88 183 -229 291 -449 346 -62 16 -122 21 -256 24 -96 1 -193 1 -215 -1z
m-2556 -3626 c-66 -131 -216 -300 -301 -338 -65 -29 -134 -26 -189 9 -40 25
-109 96 -109 111 0 3 68 32 150 64 83 31 221 90 308 130 86 41 158 72 160 71
2 -2 -7 -23 -19 -47z"/>
<path d="M3365 2419 c-460 -59 -857 -395 -998 -845 -39 -124 -52 -218 -51
-369 1 -216 51 -407 150 -580 179 -315 467 -525 824 -602 112 -24 371 -24 478
1 437 98 778 404 911 814 45 138 56 214 56 377 0 163 -11 239 -56 377 -99 307
-329 570 -623 713 -217 106 -451 144 -691 114z m436 -92 c503 -131 845 -550
866 -1063 10 -239 -42 -443 -164 -647 l-35 -59 -23 56 c-30 75 -68 122 -115
146 -77 39 -145 17 -182 -58 -46 -96 0 -244 95 -309 l47 -31 -43 -37 c-61 -53
-189 -130 -276 -166 -137 -57 -250 -81 -418 -86 -84 -3 -153 -3 -153 0 0 4 14
14 32 23 72 37 188 172 188 218 0 8 -8 20 -19 25 -24 13 -40 0 -74 -61 -83
-145 -299 -211 -353 -107 -48 94 37 263 165 329 32 16 41 26 41 46 0 37 -23
39 -80 8 -137 -75 -240 -264 -202 -373 6 -17 8 -31 3 -31 -4 0 -47 20 -95 45
-242 123 -437 335 -539 585 -179 438 -76 927 264 1255 145 140 293 227 474
279 132 38 193 45 355 41 114 -2 165 -8 241 -28z m520 -1644 c42 -36 69 -96
69 -158 0 -63 -20 -95 -60 -95 -64 0 -129 93 -130 185 0 93 54 124 121 68z"/>
<path d="M3128 2086 c-63 -23 -135 -93 -124 -122 12 -30 36 -26 82 15 101 89
185 57 155 -59 -15 -57 -10 -70 25 -70 30 0 46 34 47 105 1 63 -22 108 -67
129 -41 19 -68 20 -118 2z"/>
<path d="M3895 1972 c-57 -27 -101 -67 -133 -121 -23 -39 -27 -58 -27 -118 0
-68 2 -75 31 -104 129 -128 384 107 310 286 -28 65 -109 91 -181 57z m107 -69
c37 -33 18 -124 -41 -186 -75 -82 -161 -74 -161 14 0 113 138 230 202 172z"/>
<path d="M2880 1845 c-104 -47 -150 -162 -116 -294 24 -93 62 -157 142 -237
116 -117 254 -166 374 -134 56 15 121 79 138 137 50 168 -72 394 -271 499 -63
33 -82 38 -152 41 -57 2 -90 -1 -115 -12z m228 -86 c224 -102 336 -428 174
-505 -47 -22 -142 -15 -207 16 -69 33 -185 150 -218 222 -39 82 -46 164 -19
220 45 91 138 108 270 47z"/>
<path d="M4086 1449 c-80 -69 -71 -215 18 -316 64 -73 131 -91 194 -53 43 26
62 74 62 152 -1 177 -169 310 -274 217z m148 -76 c83 -83 82 -243 -2 -243 -67
0 -138 110 -130 201 6 60 21 79 63 79 23 0 41 -10 69 -37z"/>
<path d="M3638 1235 c-89 -29 -172 -139 -199 -266 -16 -76 -6 -242 18 -305 83
-213 270 -276 405 -136 77 79 118 190 118 322 0 255 -165 441 -342 385z m129
-76 c151 -73 193 -392 73 -557 -32 -45 -94 -82 -135 -82 -130 0 -237 206 -206
398 19 117 73 208 146 246 40 21 70 20 122 -5z"/>
<path d="M2960 899 c-63 -10 -101 -26 -133 -57 -61 -57 -72 -116 -34 -172 36
-53 89 -75 182 -75 93 1 142 21 193 80 59 67 36 163 -50 203 -53 25 -99 31
-158 21z m123 -78 c14 -6 33 -21 42 -35 38 -57 -46 -125 -155 -126 -57 0 -115
25 -126 55 -32 81 123 150 239 106z"/>
</g>
</svg>
